<!-- Generated by IcoMoon.io -->
<svg version="1.1" xmlns="http://www.w3.org/2000/svg" width="32" height="32" viewBox="0 0 32 32">
<path d="M30.020 9.327l-1.985-1.908-10.45 10.877c-0.26 0.271-0.619 0.424-0.995 0.425-0 0-0.001 0-0.002 0-0.375 0-0.734-0.153-0.994-0.422l-5.448-5.643-7.761 8.169c-0.271 0.286-0.637 0.43-1.002 0.43-0.342 0-0.684-0.126-0.952-0.38-0.553-0.526-0.576-1.401-0.050-1.954l8.755-9.215c0.259-0.273 0.62-0.429 0.997-0.43 0.002 0 0.004 0 0.006 0 0.375 0 0.734 0.153 0.994 0.422l5.454 5.649 9.456-9.842-1.986-1.908 7.944-2.299-1.98 8.029zM1.382 23.099c-0.318 0-0.627-0.046-0.922-0.134v7.736h4.147v-9.542l-0.889 0.935c-0.604 0.641-1.456 1.004-2.336 1.004zM5.529 30.702h4.147v-14.878l-4.147 4.364v10.515zM14.27 19.579l-3.672-3.801v14.924h4.147v-10.718c-0.171-0.12-0.327-0.253-0.475-0.405zM16.592 20.565c-0.318 0-0.627-0.046-0.926-0.138v10.275h4.147v-12.063l-0.898 0.935c-0.604 0.627-1.451 0.991-2.322 0.991zM20.735 17.68v13.021h4.147v-17.339l-4.147 4.317zM28.088 10.027l-2.285 2.378v18.297h4.147v-18.887l-1.862-1.788z"></path>
</svg>
